<svg xmlns="http://www.w3.org/2000/svg" viewBox="0 0 214.59 53.02"><defs><style>.cls-1{fill:#801e50;}.cls-2{fill:#006e78;}</style></defs><title>logo</title><g id="Layer_2" data-name="Layer 2"><g id="Ebene_1" data-name="Ebene 1"><rect class="cls-1" x="116.52" width="7.62" height="6.99"/><path class="cls-2" d="M14.72,19.3c-.52-2.52-2.24-2.75-3-2.75A2.79,2.79,0,0,0,8.76,19.3c0,1.83,1.32,2.23,5.39,3.55S23,25.94,23,32.36A10.89,10.89,0,0,1,11.92,43.48,12.14,12.14,0,0,1,2.41,39.3,11.75,11.75,0,0,1,0,32.43H7.79c.35,1.43,1,4.07,4.18,4.06a3.24,3.24,0,0,0,3.44-3.21c0-2.35-1.72-2.92-7.16-4.75-3.61-1.2-7.11-3.89-7.11-9.11,0-6.19,5.55-9.86,10.65-9.86a10.23,10.23,0,0,1,10.37,9.73Z"/><path class="cls-2" d="M55.28,10.63v31.8h-7V39.22h-.11A9.2,9.2,0,0,1,40,43.46a12.67,12.67,0,0,1-10.66-5C27,35,27,29.89,27,27.26V10.64h7.62V26.85c0,2.58,0,9.62,6.65,9.62,4.81,0,6.42-4.53,6.41-9.57V10.63Z"/><path class="cls-2" d="M61.18,10.63h7v3.72h.11A12.53,12.53,0,0,1,78.59,9.53c10.43,0,15.93,9,15.94,16.84,0,9.39-6.93,17.07-15.92,17.08a12.58,12.58,0,0,1-9.8-4.06V53H61.2ZM78.78,36.46a9.65,9.65,0,0,0,9.28-10c0-5.84-4.47-10-9.17-10a9.57,9.57,0,0,0-9.39,10,9.57,9.57,0,0,0,9.29,10"/><path class="cls-2" d="M97.61,10.61h7v2.81h.12c1.43-2.06,2.86-3.9,6.82-3.9h.63v7.39c-6.93.29-6.93,5.73-6.93,7.62V42.4H97.63Z"/><rect class="cls-2" x="116.53" y="10.6" width="7.62" height="31.8"/><path class="cls-2" d="M130.33,10.6h7v2.69h.11c.63-1,2.8-3.78,8.31-3.79a10.72,10.72,0,0,1,9.17,5,11.7,11.7,0,0,1,10.25-5c6.25,0,9.34,3.32,10.49,4.92s2.41,4.7,2.41,9.39V42.37h-7.62V24.73c0-1.83,0-8.25-6-8.25a6.2,6.2,0,0,0-5.27,3c-1.2,1.89-1.14,5-1.14,7V42.38h-7.62V24.74c0-4.36-1.66-8.25-6.36-8.25-6.07,0-6.07,6.65-6.07,10V42.39h-7.62Z"/><path class="cls-2" d="M214.59,42.36h-7v-4a15.74,15.74,0,0,1-11.11,5c-8.19,0-15.47-6.52-15.47-17.13,0-9.74,7.1-16.79,15.92-16.79a13.58,13.58,0,0,1,10.54,5.09h.11v-4h7Zm-17.7-25.89c-6.24,0-9.45,5.39-9.45,10.14a9.5,9.5,0,0,0,9.46,9.79c5.27,0,9.28-4.13,9.27-10,0-6.59-4.76-9.91-9.28-9.91"/></g></g></svg>