<svg xmlns="http://www.w3.org/2000/svg" viewBox="0 0 230.95 230.78"><defs><style>.cls-1{fill:none;stroke-linejoin:round;}.cls-1,.cls-2{stroke:#000;stroke-width:3px;}.cls-2{fill:#fff;stroke-miterlimit:10;}</style></defs><title>abwischbar</title><g id="Ebene_2" data-name="Ebene 2"><g id="Ebene_1-2" data-name="Ebene 1"><rect class="cls-1" x="26.83" y="26.89" width="177.29" height="177" transform="translate(47.58 -33.07) rotate(20.45)"/><path class="cls-2" d="M162.21,76.39A9.3,9.3,0,0,0,152,84.67l-7.44,56.95a3.1,3.1,0,0,1-6.17-.63l9.34-75.41a9.28,9.28,0,1,0-18.46-1.9l-8.7,69.23a3.1,3.1,0,0,1-6.17-.63l9.34-75.41A9.28,9.28,0,0,0,105.3,55L96,130.39a3.1,3.1,0,0,1-6.16-.63l8.07-63.07a9.28,9.28,0,1,0-18.46-1.9L68.18,158.66,57.45,140.29c-3.11-6.05-10.13-8.72-15.76-6s-7.65,9.93-4.59,16c0,0,17,32.5,24.23,46.4s20.08,25.55,46.06,28.22c43,4.42,50.26-28.39,51.28-38.31l11.87-100A9.31,9.31,0,0,0,162.21,76.39Z"/></g></g></svg>