<?xml version="1.0" encoding="utf-8"?>
<!-- Generator: Adobe Illustrator 21.1.0, SVG Export Plug-In . SVG Version: 6.00 Build 0)  -->
<svg version="1.1" id="Ebene_1" xmlns="http://www.w3.org/2000/svg" xmlns:xlink="http://www.w3.org/1999/xlink" x="0px" y="0px"
	 viewBox="0 0 312.6 184.5" style="enable-background:new 0 0 312.6 184.5;" xml:space="preserve">
<style type="text/css">
	.st0{fill:none;stroke:#3C3C3B;stroke-width:12.5;}
	.st1{fill:none;stroke:#3C3C3B;stroke-width:12.5;stroke-linecap:round;stroke-linejoin:round;}
	.st2{fill:none;}
	.st3{fill:#3C3C3B;}
</style>
<title>waschen</title>
<g>
	<g id="Ebene_2_1_">
		<g id="Ebene_1-2">
			<path id="path650" class="st0" d="M44.9,77.3c18.5,0,18.5-16.5,37-16.5s18.5,16.5,37,16.5s18.5-16.5,37-16.5s18.5,16.5,37,16.5
				s18.5-16.5,37-16.5s18.5,16.5,37,16.5"/>
			<polyline id="path651" class="st1" points="37.9,46.8 65.1,182.5 246.8,182.5 274.7,46.8 			"/>
		</g>
	</g>
	<path class="st2" d="M39.6,55.5"/>
	<path class="st3" d="M207.7,14.5c0,0,35.8,14.2,22.8,41.3l-58.8,91.1c0,0-4.3,8.5-11.5,4.9c-5.9-2.9,1.5-13.7,1.5-13.7l21.4-40
		l-5.4-0.8l-30.5,50.2c0,0-7.8,7.7-12.1,4.6c-4.3-3.1-1.7-9.5-1.7-9.5l29.7-52c0,0-2-4.8-6-1.9c-4,2.9-34.2,51.3-34.2,51.3
		s-5.5,9.7-11.7,5.9c-4.2-2.6-2.9-9.8-2.9-9.8l3.8-6.1L144.8,77c0,0,0.6-4.5-5.8-3.6l-28.7,45.1c0,0-4.9,6.7-10.2,3.5
		c-6-3.7-1.3-11.5-1.3-11.5l43.1-70.1l-26.9,8.4c0,0-8.8-0.1-11.7-7.7c-2.9-7.6,1.6-10.1,1.6-10.1l4.8-3.8l63.7-24
		C173.2,3.2,182.8-3.7,207.7,14.5z"/>
</g>
</svg>
