<?xml version="1.0" encoding="utf-8"?>
<!-- Generator: Adobe Illustrator 21.1.0, SVG Export Plug-In . SVG Version: 6.00 Build 0)  -->
<svg version="1.1" id="Ebene_1" xmlns="http://www.w3.org/2000/svg" xmlns:xlink="http://www.w3.org/1999/xlink" x="0px" y="0px"
	 viewBox="0 0 312.6 184.5" style="enable-background:new 0 0 312.6 184.5;" xml:space="preserve">
<style type="text/css">
	.st0{fill:none;stroke:#3C3C3B;stroke-width:11;}
	.st1{fill:none;stroke:#3C3C3B;stroke-width:7;}
	.st2{fill:none;stroke:#3C3C3B;stroke-width:11.25;stroke-linecap:round;}
</style>
<title>waschen</title>
<g>
	<path class="st0" d="M223.6,151.2l-71.4,25.3c-4.4,1.6-9.3-0.8-10.8-5.2L96.5,42.6c-1.6-4.5,0.8-9.3,5.2-10.9l71.4-25.3
		c4.4-1.6,9.3,0.8,10.8,5.2l44.9,128.7C230.3,144.7,228,149.6,223.6,151.2z"/>
	<path class="st1" d="M94.6,37.5L78.7,59.4c0,0-28.4,39.3-5,46.6c23.3,7.3,20.9-45.3,21.2-46.5C95.3,58.2,94.6,37.5,94.6,37.5z"/>
	<g id="Ebene_2_5_">
		<g>
			<line id="path2208_1_" class="st2" x1="69" y1="17.4" x2="236.8" y2="162.4"/>
			<line id="path2831_1_" class="st2" x1="237" y1="17.4" x2="69.3" y2="162.4"/>
		</g>
	</g>
</g>
</svg>
