<svg xmlns="http://www.w3.org/2000/svg" xmlns:xlink="http://www.w3.org/1999/xlink" width="842" zoomAndPan="magnify" viewBox="0 0 631.5 446.25" height="595" preserveAspectRatio="xMidYMid meet" version="1.2"><g id="e2b277ec6e"><path style=" stroke:none;fill-rule:nonzero;fill:#3c3c3b;fill-opacity:1;" d="M 320.148438 263.945312 C 320.148438 254.734375 313.277344 247.257812 304.785156 247.257812 C 296.300781 247.257812 289.429688 254.734375 289.429688 263.945312 C 289.429688 273.167969 296.300781 280.632812 304.785156 280.632812 C 313.269531 280.632812 320.148438 273.167969 320.148438 263.945312 "/><path style="fill:none;stroke-width:1;stroke-linecap:butt;stroke-linejoin:miter;stroke:#3c3c3b;stroke-opacity:1;stroke-miterlimit:4;" d="M 426.878321 343.758874 C 426.878321 344.373341 426.851963 344.987809 426.794854 345.597887 C 426.742137 346.207966 426.65867 346.813656 426.548844 347.419345 C 426.439018 348.020646 426.298441 348.613168 426.135898 349.201302 C 425.973356 349.789435 425.780062 350.36879 425.564803 350.934978 C 425.349545 351.501166 425.107928 352.058576 424.839952 352.59843 C 424.571977 353.138284 424.282037 353.66497 423.965738 354.17849 C 423.653832 354.68762 423.315569 355.179194 422.959733 355.653212 C 422.599504 356.131619 422.217309 356.583692 421.817543 357.018208 C 421.417777 357.452725 421.000438 357.865296 420.561135 358.255922 C 420.126224 358.642158 419.669348 359.010839 419.199293 359.348796 C 418.729238 359.691143 418.246004 360.007155 417.745198 360.296832 C 417.244392 360.58651 416.7348 360.849853 416.212028 361.082473 C 415.689257 361.319482 415.157699 361.525768 414.617356 361.70133 C 414.072619 361.881281 413.527883 362.030509 412.969967 362.149013 C 412.416445 362.267518 411.858529 362.359688 411.291827 362.421135 C 410.729518 362.478192 410.16721 362.508916 409.600508 362.508916 C 409.033806 362.508916 408.471498 362.478192 407.904796 362.421135 C 407.342487 362.359688 406.784571 362.267518 406.226656 362.149013 C 405.673133 362.030509 405.124004 361.881281 404.58366 361.70133 C 404.043317 361.525768 403.511759 361.319482 402.988988 361.082473 C 402.466216 360.849853 401.952231 360.58651 401.455818 360.296832 C 400.955012 360.007155 400.471778 359.691143 400.001723 359.348796 C 399.527275 359.010839 399.074792 358.642158 398.639881 358.255922 C 398.200578 357.865296 397.783239 357.452725 397.37908 357.018208 C 396.979313 356.583692 396.601512 356.131619 396.241283 355.653212 C 395.885447 355.179194 395.547184 354.68762 395.230885 354.17849 C 394.918979 353.66497 394.629039 353.138284 394.361064 352.59843 C 394.093088 352.058576 393.851471 351.501166 393.636213 350.934978 C 393.420954 350.36879 393.22766 349.789435 393.065118 349.201302 C 392.898182 348.613168 392.761998 348.020646 392.652172 347.419345 C 392.542346 346.813656 392.458879 346.207966 392.401769 345.597887 C 392.349053 344.987809 392.318302 344.373341 392.318302 343.758874 C 392.318302 343.144406 392.349053 342.534327 392.401769 341.924249 C 392.458879 341.309781 392.542346 340.704091 392.652172 340.102791 C 392.761998 339.50149 392.898182 338.904579 393.065118 338.316446 C 393.22766 337.728312 393.420954 337.153346 393.636213 336.582769 C 393.851471 336.016581 394.093088 335.46356 394.361064 334.919317 C 394.629039 334.379463 394.918979 333.852777 395.230885 333.343646 C 395.547184 332.834516 395.885447 332.338553 396.241283 331.864535 C 396.601512 331.390517 396.979313 330.934055 397.37908 330.503928 C 397.783239 330.069411 398.200578 329.65684 398.635488 329.266214 C 399.074792 328.875589 399.527275 328.511297 400.001723 328.168951 C 400.471778 327.826604 400.955012 327.514982 401.455818 327.225304 C 401.952231 326.935626 402.466216 326.672283 402.988988 326.435274 C 403.511759 326.202654 404.043317 325.996369 404.58366 325.816417 C 405.124004 325.640855 405.673133 325.491627 406.226656 325.368734 C 406.784571 325.250229 407.342487 325.162448 407.904796 325.101001 C 408.471498 325.039555 409.033806 325.008831 409.600508 325.008831 C 410.16721 325.008831 410.729518 325.039555 411.291827 325.101001 C 411.858529 325.162448 412.416445 325.250229 412.969967 325.368734 C 413.527883 325.491627 414.072619 325.640855 414.617356 325.816417 C 415.157699 325.996369 415.689257 326.202654 416.212028 326.435274 C 416.7348 326.672283 417.244392 326.935626 417.745198 327.225304 C 418.246004 327.514982 418.729238 327.826604 419.199293 328.168951 C 419.669348 328.511297 420.126224 328.875589 420.561135 329.266214 C 421.000438 329.65684 421.417777 330.069411 421.817543 330.503928 C 422.217309 330.934055 422.599504 331.390517 422.959733 331.864535 C 423.315569 332.338553 423.653832 332.834516 423.965738 333.343646 C 424.282037 333.852777 424.571977 334.379463 424.839952 334.919317 C 425.107928 335.46356 425.349545 336.016581 425.564803 336.582769 C 425.780062 337.153346 425.973356 337.728312 426.135898 338.316446 C 426.298441 338.904579 426.439018 339.50149 426.548844 340.102791 C 426.65867 340.704091 426.742137 341.309781 426.794854 341.924249 C 426.851963 342.534327 426.878321 343.144406 426.878321 343.758874 Z M 426.878321 343.758874 " transform="matrix(0.889191,0,0,0.889998,-59.428049,-41.999395)"/><path style="fill:none;stroke-width:12.5;stroke-linecap:round;stroke-linejoin:round;stroke:#3c3c3b;stroke-opacity:1;stroke-miterlimit:4;" d="M 345.848759 207.01787 L 533.998129 207.01787 L 571.501483 389.971232 L 271.501006 389.971232 C 271.501006 389.971232 327.749448 296.22102 383.99789 296.22102 L 550.247972 296.22102 " transform="matrix(0.889191,0,0,0.889998,-59.428049,-41.999395)"/><path style=" stroke:none;fill-rule:nonzero;fill:#3c3c3b;fill-opacity:1;" d="M 385.699219 263.945312 C 385.699219 254.734375 378.828125 247.257812 370.335938 247.257812 C 361.851562 247.257812 354.980469 254.734375 354.980469 263.945312 C 354.980469 273.167969 361.851562 280.632812 370.335938 280.632812 C 378.828125 280.632812 385.699219 273.167969 385.699219 263.945312 "/><path style="fill:none;stroke-width:1;stroke-linecap:butt;stroke-linejoin:miter;stroke:#3c3c3b;stroke-opacity:1;stroke-miterlimit:4;" d="M 500.61105 343.758874 C 500.61105 344.373341 500.580299 344.987809 500.527582 345.597887 C 500.470473 346.207966 500.387005 346.813656 500.277179 347.419345 C 500.167353 348.020646 500.031169 348.613168 499.864234 349.201302 C 499.701691 349.789435 499.512791 350.36879 499.293139 350.934978 C 499.07788 351.501166 498.836263 352.058576 498.568288 352.59843 C 498.304706 353.138284 498.010372 353.66497 497.698466 354.17849 C 497.382168 354.68762 497.048297 355.179194 496.688068 355.653212 C 496.327839 356.131619 495.950038 356.583692 495.550272 357.018208 C 495.150505 357.452725 494.728774 357.865296 494.293863 358.255922 C 493.854559 358.642158 493.402077 359.010839 492.932022 359.348796 C 492.457574 359.691143 491.97434 360.007155 491.473533 360.296832 C 490.97712 360.58651 490.467528 360.849853 489.944757 361.082473 C 489.421985 361.319482 488.886035 361.525768 488.345691 361.70133 C 487.805348 361.881281 487.256218 362.030509 486.702696 362.149013 C 486.14478 362.267518 485.586864 362.359688 485.024556 362.421135 C 484.462247 362.478192 483.895545 362.508916 483.328843 362.508916 C 482.762142 362.508916 482.199833 362.478192 481.637524 362.421135 C 481.070822 362.359688 480.512907 362.267518 479.959384 362.149013 C 479.405862 362.030509 478.856732 361.881281 478.311995 361.70133 C 477.771652 361.525768 477.240094 361.319482 476.717323 361.082473 C 476.194552 360.849853 475.684959 360.58651 475.184153 360.296832 C 474.683347 360.007155 474.200113 359.691143 473.730058 359.348796 C 473.260003 359.010839 472.803127 358.642158 472.368217 358.255922 C 471.928913 357.865296 471.511575 357.452725 471.111808 357.018208 C 470.712042 356.583692 470.329848 356.131619 469.974012 355.653212 C 469.613783 355.179194 469.275519 354.68762 468.963613 354.17849 C 468.647315 353.66497 468.357374 353.138284 468.089399 352.59843 C 467.821424 352.058576 467.579807 351.501166 467.364548 350.934978 C 467.149289 350.36879 466.960389 349.789435 466.793453 349.201302 C 466.630911 348.613168 466.490334 348.020646 466.380508 347.419345 C 466.270682 346.813656 466.187214 346.207966 466.134498 345.597887 C 466.077388 344.987809 466.05103 344.373341 466.05103 343.758874 C 466.05103 343.144406 466.077388 342.534327 466.134498 341.924249 C 466.187214 341.309781 466.270682 340.704091 466.380508 340.102791 C 466.490334 339.50149 466.630911 338.904579 466.793453 338.316446 C 466.960389 337.728312 467.149289 337.153346 467.364548 336.582769 C 467.579807 336.016581 467.821424 335.46356 468.089399 334.919317 C 468.357374 334.379463 468.647315 333.852777 468.963613 333.343646 C 469.275519 332.834516 469.613783 332.338553 469.974012 331.864535 C 470.329848 331.390517 470.712042 330.934055 471.111808 330.503928 C 471.511575 330.069411 471.928913 329.65684 472.368217 329.266214 C 472.803127 328.875589 473.260003 328.511297 473.730058 328.168951 C 474.200113 327.826604 474.683347 327.514982 475.184153 327.225304 C 475.684959 326.935626 476.194552 326.672283 476.717323 326.435274 C 477.240094 326.202654 477.771652 325.996369 478.311995 325.816417 C 478.856732 325.640855 479.405862 325.491627 479.959384 325.368734 C 480.512907 325.250229 481.070822 325.162448 481.637524 325.101001 C 482.199833 325.039555 482.762142 325.008831 483.328843 325.008831 C 483.895545 325.008831 484.462247 325.039555 485.024556 325.101001 C 485.586864 325.162448 486.14478 325.250229 486.702696 325.368734 C 487.256218 325.491627 487.805348 325.640855 488.345691 325.816417 C 488.886035 325.996369 489.421985 326.202654 489.944757 326.435274 C 490.467528 326.672283 490.97712 326.935626 491.473533 327.225304 C 491.97434 327.514982 492.457574 327.826604 492.932022 328.168951 C 493.402077 328.511297 493.854559 328.875589 494.293863 329.266214 C 494.728774 329.65684 495.150505 330.069411 495.550272 330.503928 C 495.950038 330.934055 496.327839 331.390517 496.688068 331.864535 C 497.048297 332.338553 497.382168 332.834516 497.698466 333.343646 C 498.010372 333.852777 498.304706 334.379463 498.568288 334.919317 C 498.836263 335.46356 499.07788 336.016581 499.293139 336.582769 C 499.512791 337.153346 499.701691 337.728312 499.864234 338.316446 C 500.031169 338.904579 500.167353 339.50149 500.277179 340.102791 C 500.387005 340.704091 500.470473 341.309781 500.527582 341.924249 C 500.580299 342.534327 500.61105 343.144406 500.61105 343.758874 Z M 500.61105 343.758874 " transform="matrix(0.889191,0,0,0.889998,-59.428049,-41.999395)"/></g></svg>