<svg xmlns="http://www.w3.org/2000/svg" viewBox="0 0 132.33 156.21"><defs><style>.cls-1{fill:none;stroke-miterlimit:10;}.cls-1,.cls-2{stroke:#000;stroke-width:3px;}.cls-2{fill:#fff;stroke-linejoin:round;}</style></defs><title>protektor-entfernen</title><g id="Ebene_2" data-name="Ebene 2"><g id="Ebene_1-2" data-name="Ebene 1"><path class="cls-1" d="M122.06,124.91s-14.77-38.19-16.29-54.5a167.81,167.81,0,0,1,.56-34.28s.93-7.25,0-10.68c-.76-2.83,2.23-5.86-43.77-5.86-43,0-42.42,3.15-43.33,5.86-1.12,3.37,0,10.68,0,10.68A167.81,167.81,0,0,1,19.8,70.4C18.27,86.72,3.5,124.91,3.5,124.91c-6.18,17.42,3.93,21.91,3.93,21.91,13.09,6.81,50.09,7.76,55.07,7.86h.56c5-.1,42-1,55.07-7.86C118.13,146.82,128.24,142.33,122.06,124.91Z"/><g id="Icons_with_numbers" data-name="Icons with numbers"><g id="Group"><path id="Shape" class="cls-2" d="M130.83,5.28,93.28,1.5l8.12,12c-18,12.18-29.32,25.65-23.79,51.08,5.24-18.13,15.9-28.25,34.62-35.07l8.12,12L130.83,5.28Z"/></g></g></g></g></svg>