<?xml version="1.0" encoding="utf-8"?>
<!-- Generator: Adobe Illustrator 21.1.0, SVG Export Plug-In . SVG Version: 6.00 Build 0)  -->
<svg version="1.1" id="Ebene_1" xmlns="http://www.w3.org/2000/svg" xmlns:xlink="http://www.w3.org/1999/xlink" x="0px" y="0px"
	 viewBox="0 0 312.6 184.5" style="enable-background:new 0 0 312.6 184.5;" xml:space="preserve">
<style type="text/css">
	.st0{fill:none;stroke:#3C3C3B;stroke-width:12.5;}
	.st1{fill:none;stroke:#3C3C3B;stroke-width:12.5;stroke-linecap:round;stroke-linejoin:round;}
	.st2{fill:#3E3E3D;}
</style>
<title>waschen</title>
<g id="Ebene_2">
	<g id="Ebene_1-2">
		<path id="path650" class="st0" d="M15.1,44.9C38.6,44.9,38.6,24,62.1,24S85.5,44.9,109,44.9S132.4,24,155.9,24
			s23.5,20.9,46.9,20.9S226.3,24,249.7,24s23.5,20.9,46.9,20.9"/>
		<polyline id="path651" class="st1" points="6.2,6.2 40.7,178.2 271,178.2 306.4,6.2 		"/>
	</g>
</g>
<g>
	<path class="st2" d="M218.4,77.6c0-5,1.9-9.7,5.6-13.8c3.7-4.2,8.6-6.3,14.6-6.3c6,0,10.9,2.1,14.6,6.2c3.8,4.1,5.7,8.8,5.7,13.9
		c0,5.2-1.9,9.9-5.7,14c-3.8,4.1-8.6,6.2-14.6,6.2c-5.9,0-10.7-2-14.5-6.1C220.3,87.7,218.4,83,218.4,77.6z M227.1,77.7
		c0,3.5,1.1,6.6,3.2,9.2c2.2,2.6,4.9,3.9,8.1,3.9c3.5,0,6.3-1.3,8.4-4c2.1-2.7,3.2-5.7,3.2-9.1c0-3.4-1.1-6.4-3.2-9.1
		c-2.1-2.7-4.9-4-8.4-4c-3.4,0-6.1,1.4-8.2,4.1C228.1,71.4,227.1,74.4,227.1,77.7z"/>
</g>
<g>
	<path class="st2" d="M91.9,100h1.6c3.9,0,7.4-0.4,10.5-1.2c3.1-0.8,5.8-2,8-3.6c2.2-1.6,3.9-3.6,5.1-6.1c1.2-2.4,1.8-5.3,1.8-8.5
		c0-2.1-0.4-4.1-1.2-5.9c-0.8-1.8-2-3.3-3.6-4.7c-1.6-1.3-3.6-2.3-6-3c-2.4-0.7-5.1-1.1-8.3-1.1c-1.8,0-3.7,0.2-5.5,0.7
		c-1.9,0.4-3.6,1-5.3,1.6c-1.7,0.6-3.2,1.4-4.5,2.1c-1.3,0.8-2.4,1.5-3.2,2.2l-5-7.3c1.2-0.8,2.6-1.7,4.3-2.6
		c1.7-0.9,3.5-1.8,5.5-2.5c2-0.8,4.3-1.4,6.7-1.9c2.4-0.5,5-0.8,7.7-0.8c3.8,0,7.5,0.4,11,1.3c3.5,0.9,6.6,2.3,9.3,4.1
		c2.7,1.8,4.8,4.2,6.4,7c1.6,2.8,2.4,6.2,2.4,10.1c0,3.3-0.5,6.2-1.6,8.7c-1.1,2.5-2.5,4.7-4.2,6.6c-1.8,1.8-3.8,3.4-6,4.6
		c-2.2,1.2-4.5,2.1-6.8,2.7c3.3,0.5,6.4,1.3,9.3,2.5c2.8,1.2,5.3,2.8,7.4,4.9c2.1,2.1,3.7,4.6,4.9,7.7c1.2,3.1,1.7,6.7,1.7,11
		c0,5.3-0.9,9.8-2.7,13.6c-1.8,3.8-4.3,6.9-7.6,9.4c-3.3,2.4-7.2,4.2-11.8,5.4c-4.6,1.2-9.7,1.7-15.3,1.7c-2,0-4.1-0.2-6.2-0.5
		c-2.1-0.3-4.2-0.7-6.2-1.3c-2-0.6-3.9-1.2-5.6-2c-1.8-0.8-3.3-1.7-4.6-2.7l4.8-8.4c3.2,2.1,6.2,3.8,9.2,4.8c2.9,1.1,6,1.6,9.2,1.6
		c8.7,0,15.2-1.8,19.5-5.3c4.3-3.5,6.4-9,6.4-16.4c0-3.8-0.6-7-1.7-9.6c-1.1-2.7-2.8-4.8-5-6.5c-2.2-1.7-4.9-2.9-8.1-3.7
		c-3.2-0.8-6.9-1.2-11-1.2h-5.5V100z"/>
	<path class="st2" d="M177.8,158.8c-10.5,0-18.3-4.4-23.3-13.2c-5-8.8-7.5-21.7-7.5-38.9c0-14.9,2.6-26.8,7.8-35.8
		c5.2-9,13-13.5,23.6-13.5c9.9,0,17.5,4,22.8,12.1c5.3,8.1,8,21,8,38.9c0,17.2-2.7,29.8-8.2,38C195.4,154.7,187.7,158.8,177.8,158.8
		z M178.2,149.8c6.7,0,11.6-3.2,14.8-9.6c3.2-6.4,4.8-17.9,4.8-34.6c0-11.5-1.2-21-3.7-28.3c-2.5-7.3-7.8-11-16-11
		c-8,0-13.3,3.7-16.1,11.1c-2.7,7.4-4.1,17.1-4,29.3c0,17.1,1.6,28.5,4.9,34.3C166.3,146.9,171.4,149.8,178.2,149.8z"/>
</g>
</svg>
