<svg id="g2806" xmlns="http://www.w3.org/2000/svg" viewBox="0 0 333.16 196.59"><defs><style>.cls-1,.cls-2{fill:none;stroke:#3c3c3b;stroke-width:12.5px;}.cls-2{stroke-linecap:round;stroke-linejoin:round;}.cls-3{fill:#3c3c3b;}</style></defs><title>IconsZeichenfläche 2</title><path id="path650" class="cls-1" d="M25.4,51c23.46,0,23.46-20.89,46.92-20.89S95.78,51,119.23,51s23.46-20.89,46.92-20.89S189.61,51,213.07,51,236.53,30.09,260,30.09,283.44,51,306.9,51"/><polyline id="path651" class="cls-2" points="16.51 12.3 50.9 184.29 281.22 184.29 316.65 12.3"/><path class="cls-3" d="M167.31,115.33c0,28.59,8.82,43.66,24.89,43.66s24.91-15.06,24.91-43.66-8.82-43.66-24.91-43.66-24.89,15.06-24.89,43.66m10.79,0c0-24,4.29-34.83,14.1-34.83s14.12,10.79,14.12,34.83S202,150.17,192.2,150.17s-14.1-10.79-14.1-34.83M154.44,74.12a41.9,41.9,0,0,0-14.22-2.44c-21.36,0-31.76,15.69-31.76,47.08,0,24.79,6.85,40.23,25.13,40.23,13.86,0,24.65-9.43,24.65-28.32,0-13.51-7.84-26.74-22.31-26.74-7.74,0-14,3.92-17,10.53h-.24c0-20.22,7.86-34,22.09-34a25.3,25.3,0,0,1,13.11,3.68Zm-34.1,57.28c0-9.08,4.41-18.65,13.63-18.65s13.49,9.57,13.49,18.65c0,9.33-4.41,18.77-13.49,18.77s-13.63-9.43-13.63-18.77"/><path class="cls-3" d="M243.13,106.94a18.63,18.63,0,1,1,18.64-18.62A18.65,18.65,0,0,1,243.13,106.94Zm0-29.26a10.63,10.63,0,1,0,10.64,10.64A10.65,10.65,0,0,0,243.13,77.68Z"/></svg>