<?xml version="1.0" encoding="utf-8"?>
<!-- Generator: Adobe Illustrator 21.1.0, SVG Export Plug-In . SVG Version: 6.00 Build 0)  -->
<svg version="1.1" id="Ebene_1" xmlns="http://www.w3.org/2000/svg" xmlns:xlink="http://www.w3.org/1999/xlink" x="0px" y="0px"
	 viewBox="0 0 312.6 184.5" style="enable-background:new 0 0 312.6 184.5;" xml:space="preserve">
<style type="text/css">
	.st0{fill:none;stroke:#3C3C3B;stroke-width:12.5;}
	.st1{fill:none;stroke:#3C3C3B;stroke-width:12.5;stroke-linecap:round;stroke-linejoin:round;}
	.st2{fill:#3E3E3D;}
</style>
<title>waschen</title>
<g id="Ebene_2">
	<g id="Ebene_1-2">
		<path id="path650" class="st0" d="M15.1,44.9C38.6,44.9,38.6,24,62.1,24S85.5,44.9,109,44.9S132.4,24,155.9,24
			s23.5,20.9,46.9,20.9S226.3,24,249.7,24s23.5,20.9,46.9,20.9"/>
		<polyline id="path651" class="st1" points="6.2,6.2 40.7,178.2 271,178.2 306.4,6.2 		"/>
	</g>
</g>
<g>
	<path class="st2" d="M91.2,146.2c3.9,1.7,7.1,2.7,9.6,3c2.6,0.3,4.5,0.5,5.8,0.5c3.6,0,6.8-0.7,9.5-2.2c2.7-1.5,5-3.6,6.9-6.3
		c1.9-2.7,3.4-6.1,4.6-10c1.2-4,2-8.4,2.6-13.4c-0.9,0.9-2.1,1.7-3.5,2.5c-1.4,0.8-2.9,1.4-4.6,2c-1.7,0.6-3.4,1-5.2,1.4
		c-1.8,0.3-3.6,0.5-5.3,0.5c-4.4,0-8.4-0.7-11.9-2c-3.5-1.3-6.5-3.2-8.9-5.6c-2.4-2.5-4.3-5.5-5.6-9c-1.3-3.5-1.9-7.5-1.9-12
		c0-4.7,0.9-9.3,2.6-13.9c1.7-4.6,4.9-8.5,9.6-11.7c4.6-3.2,10.7-4.8,18.3-4.8c8.9,0,15.6,3.2,20.2,9.6c4.6,6.4,6.9,16,6.9,28.8
		c0,8.7-0.7,16.4-2,23.1c-1.3,6.7-3.4,12.4-6.3,17c-2.9,4.6-6.6,8.1-11.2,10.5c-4.6,2.4-10.1,3.6-16.6,3.6c-3,0-6-0.3-8.9-0.8
		c-2.9-0.5-5.6-1.3-8.1-2.3L91.2,146.2z M92.9,95.2c0,5.2,1,9.4,3,12.6c2,3.2,4.5,5.3,7.3,6.4c2.9,1.1,5.9,1.6,9,1.6
		c2.9,0,5.6-0.2,7.8-0.8c2.3-0.5,4.3-1.5,6.1-2.8c1.8-1.3,3.2-2.6,4.3-4.1c0.5-2.3,0.7-4.9,0.6-7.8c0.1-4.9-0.4-9.1-1.4-12.5
		c-1-3.4-2.4-6.2-4.1-8.4c-1.7-2.2-3.7-3.7-6-4.7c-2.3-1-4.7-1.5-7.1-1.5c-2.6,0-5.4,0.5-8.3,1.6c-2.9,1.1-5.5,3.3-7.8,6.8
		C94,85.2,92.9,89.7,92.9,95.2z"/>
	<path class="st2" d="M201.6,67.5V76h-34.7v24.5c2.1-1.1,4.3-1.8,6.8-2.2c2.4-0.4,4.7-0.6,6.8-0.6c4.5,0,8.5,0.8,12.2,2.4
		c3.7,1.6,7,4.6,10,9c3,4.5,4.5,10.7,4.5,18.6c0,8.4-2.8,15.5-8.3,21.4c-5.5,5.9-12.6,8.8-21.2,8.8c-2.7,0-5.3-0.2-7.8-0.7
		c-2.5-0.5-4.7-1-6.7-1.6c-2-0.6-3.7-1.3-5-1.9c-1.4-0.7-2.3-1.2-2.8-1.6l4.2-8c7.9,3.6,14.3,5.4,19.2,5.4c5.3,0,9.7-2.1,13.2-6.4
		c3.5-4.2,5.2-9.5,5.2-15.7c0-5.4-1-9.7-2.9-13c-1.9-3.3-4.1-5.6-6.5-6.9c-2.4-1.3-5.2-1.9-8.3-1.9c-3.4,0-6.5,0.5-9.3,1.4
		c-2.8,0.9-5.2,2.4-7.1,4.4h-5.2l-0.1-43.7H201.6z"/>
	<path class="st2" d="M218.4,77.6c0-5,1.9-9.7,5.6-13.8c3.7-4.2,8.6-6.3,14.6-6.3c6,0,10.9,2.1,14.6,6.2c3.8,4.1,5.7,8.8,5.7,13.9
		c0,5.2-1.9,9.9-5.7,14c-3.8,4.1-8.6,6.2-14.6,6.2c-5.9,0-10.7-2-14.5-6.1C220.3,87.7,218.4,83,218.4,77.6z M227.1,77.7
		c0,3.5,1.1,6.6,3.2,9.2c2.2,2.6,4.9,3.9,8.1,3.9c3.5,0,6.3-1.3,8.4-4c2.1-2.7,3.2-5.7,3.2-9.1c0-3.4-1.1-6.4-3.2-9.1
		c-2.1-2.7-4.9-4-8.4-4c-3.4,0-6.1,1.4-8.2,4.1C228.1,71.4,227.1,74.4,227.1,77.7z"/>
</g>
</svg>
